<svg id="Capa_1" enable-background="new 0 0 512 512" height="512" viewBox="0 0 512 512" width="512" xmlns="http://www.w3.org/2000/svg"><g><path d="m501.698 172.748h-491.396c-5.69 0-10.302-4.612-10.302-10.302v-21.022c0-5.69 4.612-10.302 10.302-10.302h491.396c5.69 0 10.302 4.612 10.302 10.302v21.022c0 5.69-4.613 10.302-10.302 10.302z" fill="#f9f6f6"/><path d="m486.894 97.299c-1.147-4.586-5.267-7.803-9.994-7.803h-29.702c-4.727 0-8.848 3.217-9.994 7.803l-8.456 33.823h33.301 33.301z" fill="#2b3890"/><path d="m501.698 172.748h-16.755v-41.626h16.755c5.69 0 10.302 4.612 10.302 10.302v21.022c0 5.69-4.613 10.302-10.302 10.302z" fill="#e2d8ec"/><path d="m501.698 380.878h-491.396c-5.69 0-10.302 4.612-10.302 10.302v21.022c0 5.69 4.612 10.302 10.302 10.302h491.396c5.69 0 10.302-4.612 10.302-10.302v-21.022c0-5.69-4.613-10.302-10.302-10.302z" fill="#f9f6f6"/><path d="m501.698 422.504h-16.755v-41.626h16.755c5.69 0 10.302 4.612 10.302 10.302v21.022c0 5.69-4.613 10.302-10.302 10.302z" fill="#e2d8ec"/><path d="m495.352 260.162-12.486 16.648 12.486 16.658v87.41h-478.704v-87.41l12.486-16.658-12.486-16.648v-87.411h478.704z" fill="#e7a561"/><path d="m495.352 260.162-12.486 16.648 12.486 16.658v87.41h-24.982v-208.127h24.982z" fill="#e49542"/><path d="m131.122 326.764v-99.902c0-11.495 9.318-20.813 20.813-20.813h208.13c11.495 0 20.813 9.318 20.813 20.813v99.902c0 11.495-9.318 20.813-20.813 20.813h-208.13c-11.495 0-20.813-9.318-20.813-20.813z" fill="#ffe07d"/><path d="m428.748 283.161v-12.697c0-5.69 4.612-10.302 10.302-10.302h56.3v33.301h-56.3c-5.69 0-10.302-4.612-10.302-10.302z" fill="#ecf4ff"/><path d="m470.374 260.162h24.976v33.301h-24.976z" fill="#cbe2ff"/><path d="m83.25 283.161v-12.697c0-5.69-4.612-10.302-10.302-10.302h-56.3v33.301h56.3c5.69 0 10.302-4.612 10.302-10.302z" fill="#ecf4ff"/><circle cx="256" cy="276.813" fill="#dd636e" r="31.22"/></g></svg>