<svg id="Capa_1" enable-background="new 0 0 512 512" height="512" viewBox="0 0 512 512" width="512" xmlns="http://www.w3.org/2000/svg"><g><g><path d="m453.724 10.302v491.396c0 5.69-4.612 10.302-10.302 10.302h-333.218c-5.69 0-10.302-4.612-10.302-10.302v-491.396c0-5.69 4.613-10.302 10.302-10.302h333.217c5.69 0 10.303 4.612 10.303 10.302z" fill="#ecf4ff"/></g><g><path d="m151.935 56.195c0-20.658-16.806-37.463-37.463-37.463h-14.57v474.537h14.569c20.658 0 37.463-16.806 37.463-37.463 0-14.487-8.271-27.07-20.334-33.301 12.063-6.23 20.334-18.814 20.334-33.301s-8.271-27.07-20.334-33.301c12.063-6.23 20.334-18.814 20.334-33.301s-8.271-27.07-20.334-33.301c12.063-6.23 20.334-18.814 20.334-33.301s-8.271-27.07-20.334-33.301c12.063-6.23 20.334-18.814 20.334-33.301s-8.271-27.07-20.334-33.301c12.063-6.23 20.334-18.814 20.334-33.301s-8.271-27.07-20.334-33.301c12.064-6.23 20.335-18.813 20.335-33.3z" fill="#cbe2ff"/></g><g><path d="m453.724 10.302v491.396c0 5.69-4.612 10.302-10.302 10.302h-14.674v-512h14.674c5.689 0 10.302 4.612 10.302 10.302z" fill="#cbe2ff"/></g><g><path d="m114.472 72.846h-39.545c-9.196 0-16.65-7.455-16.65-16.65 0-9.196 7.455-16.65 16.65-16.65h39.545c9.196 0 16.65 7.455 16.65 16.65 0 9.195-7.455 16.65-16.65 16.65z" fill="#f9f6f6"/></g><g><path d="m114.472 139.447h-39.545c-9.196 0-16.65-7.455-16.65-16.65 0-9.196 7.455-16.65 16.65-16.65h39.545c9.196 0 16.65 7.455 16.65 16.65 0 9.196-7.455 16.65-16.65 16.65z" fill="#f9f6f6"/></g><g><path d="m114.472 206.049h-39.545c-9.196 0-16.65-7.455-16.65-16.65 0-9.196 7.455-16.65 16.65-16.65h39.545c9.196 0 16.65 7.455 16.65 16.65 0 9.195-7.455 16.65-16.65 16.65z" fill="#f9f6f6"/></g><g><path d="m114.472 272.65h-39.545c-9.196 0-16.65-7.455-16.65-16.65 0-9.196 7.455-16.65 16.65-16.65h39.545c9.196 0 16.65 7.455 16.65 16.65 0 9.196-7.455 16.65-16.65 16.65z" fill="#f9f6f6"/></g><g><path d="m114.472 339.252h-39.545c-9.196 0-16.65-7.455-16.65-16.65 0-9.196 7.455-16.65 16.65-16.65h39.545c9.196 0 16.65 7.455 16.65 16.65 0 9.195-7.455 16.65-16.65 16.65z" fill="#f9f6f6"/></g><g><path d="m114.472 405.854h-39.545c-9.196 0-16.65-7.455-16.65-16.65 0-9.196 7.455-16.65 16.65-16.65h39.545c9.196 0 16.65 7.455 16.65 16.65 0 9.195-7.455 16.65-16.65 16.65z" fill="#f9f6f6"/></g><g><path d="m114.472 472.455h-39.545c-9.196 0-16.65-7.455-16.65-16.65 0-9.196 7.455-16.65 16.65-16.65h39.545c9.196 0 16.65 7.455 16.65 16.65 0 9.196-7.455 16.65-16.65 16.65z" fill="#f9f6f6"/></g><g><g><g><circle cx="186.224" cy="122.797" fill="#b3e59f" r="16.65"/></g></g></g><g><g><g><circle cx="186.224" cy="189.398" fill="#b3e59f" r="16.65"/></g></g></g><g><g><g><circle cx="186.224" cy="256" fill="#b3e59f" r="16.65"/></g></g></g><g><g><g><circle cx="186.224" cy="322.602" fill="#b3e59f" r="16.65"/></g></g></g><g><g><g><circle cx="186.224" cy="389.203" fill="#b3e59f" r="16.65"/></g></g></g><g><g><g><circle cx="186.224" cy="455.805" fill="#b3e59f" r="16.65"/></g></g></g><g><path d="m349.658 63.922h-145.691c-4.267 0-7.726-3.459-7.726-7.726s3.459-7.726 7.726-7.726h145.691c4.267 0 7.726 3.459 7.726 7.726s-3.458 7.726-7.726 7.726z" fill="#dd636e"/></g><g><g><path d="m397.529 113.873h-166.505c-4.267 0-7.726-3.459-7.726-7.726s3.459-7.726 7.726-7.726h166.505c4.267 0 7.726 3.459 7.726 7.726s-3.459 7.726-7.726 7.726z" fill="#bed8fb"/></g><g><path d="m335.09 147.174h-104.066c-4.267 0-7.726-3.459-7.726-7.726s3.459-7.726 7.726-7.726h104.066c4.267 0 7.726 3.459 7.726 7.726 0 4.266-3.459 7.726-7.726 7.726z" fill="#bed8fb"/></g></g><g><g><path d="m397.529 180.474h-166.505c-4.267 0-7.726-3.459-7.726-7.726s3.459-7.726 7.726-7.726h166.505c4.267 0 7.726 3.459 7.726 7.726s-3.459 7.726-7.726 7.726z" fill="#bed8fb"/></g><g><path d="m335.09 213.775h-104.066c-4.267 0-7.726-3.459-7.726-7.726s3.459-7.726 7.726-7.726h104.066c4.267 0 7.726 3.459 7.726 7.726s-3.459 7.726-7.726 7.726z" fill="#bed8fb"/></g></g><g><g><path d="m397.529 247.076h-166.505c-4.267 0-7.726-3.459-7.726-7.726s3.459-7.726 7.726-7.726h166.505c4.267 0 7.726 3.459 7.726 7.726s-3.459 7.726-7.726 7.726z" fill="#bed8fb"/></g><g><path d="m335.09 280.377h-104.066c-4.267 0-7.726-3.459-7.726-7.726s3.459-7.726 7.726-7.726h104.066c4.267 0 7.726 3.459 7.726 7.726s-3.459 7.726-7.726 7.726z" fill="#bed8fb"/></g></g><g><g><path d="m397.529 313.678h-166.505c-4.267 0-7.726-3.459-7.726-7.726s3.459-7.726 7.726-7.726h166.505c4.267 0 7.726 3.459 7.726 7.726 0 4.266-3.459 7.726-7.726 7.726z" fill="#bed8fb"/></g><g><path d="m335.09 346.978h-104.066c-4.267 0-7.726-3.459-7.726-7.726s3.459-7.726 7.726-7.726h104.066c4.267 0 7.726 3.459 7.726 7.726s-3.459 7.726-7.726 7.726z" fill="#bed8fb"/></g></g><g><g><path d="m397.529 380.279h-166.505c-4.267 0-7.726-3.459-7.726-7.726s3.459-7.726 7.726-7.726h166.505c4.267 0 7.726 3.459 7.726 7.726s-3.459 7.726-7.726 7.726z" fill="#bed8fb"/></g><g><path d="m335.09 413.58h-104.066c-4.267 0-7.726-3.459-7.726-7.726s3.459-7.726 7.726-7.726h104.066c4.267 0 7.726 3.459 7.726 7.726s-3.459 7.726-7.726 7.726z" fill="#bed8fb"/></g></g><g><g><path d="m397.529 446.881h-166.505c-4.267 0-7.726-3.459-7.726-7.726s3.459-7.726 7.726-7.726h166.505c4.267 0 7.726 3.459 7.726 7.726s-3.459 7.726-7.726 7.726z" fill="#bed8fb"/></g><g><path d="m335.09 480.182h-104.066c-4.267 0-7.726-3.459-7.726-7.726s3.459-7.726 7.726-7.726h104.066c4.267 0 7.726 3.459 7.726 7.726s-3.459 7.726-7.726 7.726z" fill="#bed8fb"/></g></g></g></svg>