<svg id="Capa_1" enable-background="new 0 0 512 512" height="512" viewBox="0 0 512 512" width="512" xmlns="http://www.w3.org/2000/svg"><g><path d="m372.553 174.735v109.512c0 6.974-6.779 11.922-13.427 9.816-20.238-6.411-60.723-17.25-103.126-17.25s-82.887 10.839-103.126 17.25c-6.648 2.106-13.427-2.842-13.427-9.816v-109.512z" fill="#3342aa"/><g><path d="m432.913 429.709v71.989c0 5.69-4.612 10.302-10.302 10.302h-333.222c-5.69 0-10.302-4.612-10.302-10.302v-71.989c0-47.079 31.616-88.307 77.099-100.504l31.091-8.345h137.447l31.091 8.345c45.482 12.197 77.098 53.425 77.098 100.504z" fill="#b3e59f"/><path d="m256 507.384 68.719-186.524-32.296-8.665h-72.846l-32.296 8.665z" fill="#ecf4ff"/><path d="m376.497 337.199c12.658 17.359 19.991 38.642 19.991 61.294v113.507h26.121c5.69 0 10.302-4.612 10.302-10.302v-71.985c0-39.555-22.317-74.962-56.414-92.514z" fill="#95d6a4"/><path d="m355.812 329.202-30.661-8.226v120.322c0 3.414-2.767 6.181-6.181 6.181h-62.97-62.97c-3.414 0-6.181-2.767-6.181-6.181v-120.322l-30.661 8.226c-3.801 1.02-7.495 2.259-11.091 3.671v179.127h110.903 110.904v-179.127c-3.597-1.411-7.291-2.651-11.092-3.671z" fill="#b78b7a"/><path d="m325.151 440.61v.689c0 3.414-2.767 6.181-6.181 6.181h-2.491c-19.604 14.971-42.217 28.673-67.2 40.207-23.819 10.996-47.741 19.069-70.814 24.314h77.535 110.904v-114.05c-11.19 14.697-25.262 29.119-41.753 42.659z" fill="#aa7a63"/><path d="m292.423 312.195v-44.748h-72.846v44.748l32.556 88.367c1.324 3.595 6.409 3.595 7.733 0z" fill="#f1d0a5"/><path d="m219.577 292.083c11.342 4.252 23.614 6.583 36.423 6.583 12.808 0 25.081-2.332 36.423-6.583v-24.636h-72.846z" fill="#f1b986"/><path d="m172.748 96.78v96.78c0 45.979 37.273 83.252 83.252 83.252s83.252-37.273 83.252-83.252v-96.78z" fill="#f1d0a5"/><path d="m339.252 193.561-8.75-14-11.022-17.636v53.395c0 16.246-4.67 31.394-12.717 44.206 19.751-15.222 32.489-39.1 32.489-65.965z" fill="#f1b986"/><path d="m256 0c-64.37 0-116.553 52.182-116.553 116.553v49.904l33.301-.095v27.199l23.114-36.983c1.752-2.804 4.749-4.594 8.048-4.812 22.217-1.471 36.69-12.275 44.613-20.502 4.098-4.256 10.857-4.256 14.955 0 7.923 8.227 22.395 19.03 44.613 20.502 3.299.218 6.295 2.008 8.048 4.812l23.114 36.983v-27.199l33.301.095v-49.904c-.001-64.371-52.184-116.553-116.554-116.553z" fill="#3342aa"/><path d="m302.289 9.562c22.743 21.27 36.963 51.541 36.963 85.137v46.735l33.301 26.948v-51.829c0-47.921-28.924-89.081-70.264-106.991z" fill="#2b3890"/><g fill="#f1d0a5"><path d="m355.902 191.385h-16.65v-49.951h16.65c9.196 0 16.65 7.455 16.65 16.65v16.65c.001 9.196-7.454 16.651-16.65 16.651z"/><path d="m156.098 191.385h16.65v-49.951h-16.65c-9.196 0-16.65 7.455-16.65 16.65v16.65c-.001 9.196 7.454 16.651 16.65 16.651z"/></g></g></g></svg>